<svg xmlns="http://www.w3.org/2000/svg" viewBox="0 0 849.32 1293.25"><defs><style>.cls-1{fill:none;stroke:#fff;stroke-linecap:round;stroke-miterlimit:10;stroke-width:1.5px;}</style></defs><g id="Layer_2" data-name="Layer 2"><g id="lines"><rect width="849.32" height="1293.25"/><polyline class="cls-1" points="33.07 60.31 73.09 60.31 100.16 27.67 276.14 27.67 342.06 107.14 415.63 107.14 453.59 152.9 453.59 220.66"/><line class="cls-1" x1="337.35" y1="28.38" x2="337.35" y2="62.44"/><polyline class="cls-1" points="395.62 26.96 395.62 38.31 358.24 83.37"/><polyline class="cls-1" points="416.81 26.25 416.81 61.02 454.47 106.43"/><line class="cls-1" x1="453.88" y1="26.25" x2="453.88" y2="61.02"/><line class="cls-1" x1="475.96" y1="28.38" x2="475.96" y2="692.45"/><polyline class="cls-1" points="490.16 28.38 490.16 565.84 490.16 692.46"/><polyline class="cls-1" points="507.74 29.44 533.34 60.31 533.34 108.2 549.67 127.89"/><line class="cls-1" x1="571.3" y1="26.25" x2="571.3" y2="100.75"/><polyline class="cls-1" points="597.79 29.44 609.26 43.28 609.26 82.66 589.4 106.6"/><polyline class="cls-1" points="639.28 27.31 652.52 43.28 652.52 84.79 612.35 133.21 573.07 133.21 515.02 203.19 515.02 400.88 545.79 435.71"/><polyline class="cls-1" points="513.03 477.51 554.97 426.95 554.97 219.95 615.22 147.31 818.49 147.31"/><polyline class="cls-1" points="647.22 127.36 665.76 105.01 822.02 105.01"/><polyline class="cls-1" points="666.65 77.34 688.28 51.26 822.02 51.26"/><line class="cls-1" x1="701.08" y1="78.4" x2="817.61" y2="78.4"/><polyline class="cls-1" points="512.74 544.2 570.12 475.02 570.12 357.6 625.3 291.08 819.38 291.08"/><polyline class="cls-1" points="589.25 219.24 610.15 194.05 821.14 194.05"/><polyline class="cls-1" points="571.01 290.19 611.32 241.59 806.43 241.59 823.05 221.55"/><polyline class="cls-1" points="626.92 336.31 647.52 311.48 785.83 311.48"/><path class="cls-1" d="M751.61,369.06H609.45s-17.41,0-17.43,0v62.8"/><polyline class="cls-1" points="610.44 454.8 650.32 407.26 803.3 407.26 803.3 338.44 819.38 338.44"/><polyline class="cls-1" points="33.07 84.43 93.1 84.43 122.53 48.95 266.72 48.95 450.65 270.68"/><polyline class="cls-1" points="359.72 137.65 405.03 137.65 432.11 170.28 432.11 223.5"/><polyline class="cls-1" points="29.54 110.68 278.5 110.68 458 327.09"/><polyline class="cls-1" points="28.95 155.38 278.5 155.38 457.12 370.73"/><polyline class="cls-1" points="455.65 416.49 282.03 207.18 32.48 207.18"/><polyline class="cls-1" points="31.3 249.04 281.44 249.04 456.24 459.77 456.24 567.62 456.24 691.56"/><polyline class="cls-1" points="32.48 293.03 240.83 293.03 265.25 322.48 265.25 366.82 336.91 453.21"/><polyline class="cls-1" points="283.79 293.03 360.89 385.98 360.89 420.75"/><polyline class="cls-1" points="282.62 340.57 339.7 409.39 339.7 428.55"/><polyline class="cls-1" points="380.31 431.39 336.47 484.25 293.21 484.25 241.56 421.99 241.56 343.41 225.89 324.52 30.71 324.52"/><polyline class="cls-1" points="33.07 363.98 149.01 363.98 240.83 474.67"/><line class="cls-1" x1="130.77" y1="385.98" x2="204.63" y2="475.02"/><polyline class="cls-1" points="26.59 408.68 108.4 408.68 197.28 515.82 352.06 515.82 413.27 442.03"/><polyline class="cls-1" points="29.43 551.26 321.94 551.26 344.01 551.26 424.79 453.88"/><polyline class="cls-1" points="30.71 446.29 96.63 446.29 139.01 497.38"/><line class="cls-1" x1="29.54" y1="529.3" x2="162.55" y2="529.3"/><line class="cls-1" x1="31.3" y1="493.12" x2="91.33" y2="493.12"/><line class="cls-1" x1="343.15" y1="612.02" x2="429.46" y2="509.08"/><line class="cls-1" x1="646.34" y1="451.26" x2="819.38" y2="451.26"/><line class="cls-1" x1="821.73" y1="596.71" x2="531.57" y2="596.71"/><polyline class="cls-1" points="572.18 540.66 609.85 495.25 817.02 495.25"/><polyline class="cls-1" points="821.73 569.04 523.73 569.04 523.73 664.67"/><line class="cls-1" x1="820.55" y1="532.14" x2="625.15" y2="532.14"/><line class="cls-1" x1="719.58" y1="623.68" x2="829.88" y2="623.68"/><polyline class="cls-1" points="263.78 1257.28 263.78 777.64 334.41 692.49 335.69 690.94 335.69 670.58"/><line class="cls-1" x1="397.38" y1="730.1" x2="397.38" y2="1254.44"/><polyline class="cls-1" points="378.55 1253.73 378.55 1125.31 361.48 1104.73 361.48 828.01"/><line class="cls-1" x1="710.98" y1="649.06" x2="822.07" y2="649.06"/><polyline class="cls-1" points="172.75 352.39 217.87 352.39 224.15 359.96 224.15 414.83"/><polyline class="cls-1" points="419.45 730.81 482.58 806.9 482.58 961.76 439.98 1013.11 439.98 1255.5"/><line class="cls-1" x1="460.95" y1="1022.42" x2="460.95" y2="1253.37"/><line class="cls-1" x1="483.9" y1="989.43" x2="483.9" y2="1256.57"/><polyline class="cls-1" points="453.88 730.81 506.85 794.67 506.85 1256.57"/><polyline class="cls-1" points="300.27 1249.12 300.27 778.7 356.77 710.59 475.07 710.59 533.34 780.83 533.34 871.29 591.16 941 819.38 941"/><line class="cls-1" x1="417.69" y1="775.51" x2="417.69" y2="968.14"/><line class="cls-1" x1="436.23" y1="798.92" x2="436.23" y2="917.06"/><polyline class="cls-1" points="456.53 819.14 456.53 952.18 416.36 1000.61 416.36 1256.57"/><polyline class="cls-1" points="380.61 728.68 320.13 801.58 320.13 1252.31"/><polyline class="cls-1" points="377.96 770.19 340 815.95 340 1254.44"/><polyline class="cls-1" points="576.6 963.89 532.01 1017.63 532.01 1256.57"/><polyline class="cls-1" points="610.15 979.85 666.65 1047.97 666.65 1170.36 627.8 1217.19 627.8 1253.37"/><line class="cls-1" x1="643.69" y1="962.82" x2="821.14" y2="962.82"/><line class="cls-1" x1="687.83" y1="984.11" x2="822.03" y2="984.11"/><polyline class="cls-1" points="705.49 1003.27 751.4 1003.27 791.57 1051.69 821.14 1051.69"/><line class="cls-1" x1="70.74" y1="740.03" x2="28.07" y2="791.47"/><polyline class="cls-1" points="29.93 951.23 86.82 951.23 106.05 928.06"/><polyline class="cls-1" points="71.13 871.29 96.24 871.29 110.76 853.79 110.76 829.67"/><polyline class="cls-1" points="247.3 901.1 224.79 928.23 224.79 1181 186.17 1227.57 32.77 1227.57"/><line class="cls-1" x1="245.54" y1="1194.6" x2="192.96" y2="1257.99"/><line class="cls-1" x1="170.5" y1="895.77" x2="232.29" y2="821.27"/><polyline class="cls-1" points="246.42 846.82 183.74 922.38 183.74 1061.8 112.67 1147.48 26.59 1147.48"/><line class="cls-1" x1="31.89" y1="1111.53" x2="87.21" y2="1111.53"/><polyline class="cls-1" points="28.36 1070.32 87.51 1070.32 118.85 1108.1"/><polyline class="cls-1" points="28.36 991.91 101.93 991.91 149.6 934.44 149.6 804.6 210.15 804.6"/><polyline class="cls-1" points="29.54 1028.81 116.05 1028.81 169.61 964.24"/><line class="cls-1" x1="166.67" y1="1025.97" x2="127.53" y2="1073.15"/><polyline class="cls-1" points="30.71 1190.11 96.24 1190.11 112.72 1203.35 172.75 1203.35 205.91 1163.38 205.91 1078.95"/><polyline class="cls-1" points="125.67 1177.34 159.41 1177.34 185.31 1148.48 185.31 1111.11"/><line class="cls-1" x1="171.57" y1="1119.63" x2="148.42" y2="1147.54"/><polyline class="cls-1" points="818.2 713.07 595.14 713.07 549.9 713.07"/><polyline class="cls-1" points="649.87 796.79 691.37 746.77 822.91 746.77"/><polyline class="cls-1" points="553.94 819.5 615.44 893.64 821.73 893.64"/><polyline class="cls-1" points="596.31 741.45 623.68 774.44 653.99 737.9"/><polyline class="cls-1" points="691.66 806.89 715.05 778.68 825.56 778.68"/><line class="cls-1" x1="737.76" y1="806.1" x2="827.22" y2="806.1"/><polyline class="cls-1" points="688.72 1028.81 688.72 1182.78 744.92 1250.54 754.34 1261.89"/><polyline class="cls-1" points="676.95 1211.87 654.29 1239.18 654.29 1262.24"/><line class="cls-1" x1="691.66" y1="1231.73" x2="719.32" y2="1265.08"/><polyline class="cls-1" points="585.72 1002.56 553.64 1041.23 553.64 1109.69 593.81 1158.12 593.81 1260.11"/><polyline class="cls-1" points="553.94 1149.43 577.77 1178.16 577.77 1257.28"/><line class="cls-1" x1="551" y1="1199.1" x2="551" y2="1268.63"/><polyline class="cls-1" points="598.67 1034.48 640.75 1085.22 640.75 1165.04 613.53 1197.85"/><polyline class="cls-1" points="575.72 1057.19 575.72 1086.99 592.2 1106.86 611.62 1106.86 611.62 1146.59"/><polyline class="cls-1" points="721.68 1047.97 749.93 1082.02 821.73 1082.02"/><line class="cls-1" x1="770.53" y1="1112.53" x2="832.32" y2="1187.03"/><polyline class="cls-1" points="722.85 1114.66 785.53 1190.23 785.53 1275.01"/><line class="cls-1" x1="718.15" y1="1170" x2="757.58" y2="1217.54"/><polyline class="cls-1" points="526.28 908.66 558.25 947.21 523.92 988.6"/><line class="cls-1" x1="392.67" y1="603.76" x2="437.99" y2="549.64"/><polyline class="cls-1" points="31.5 572.35 311.26 572.35 311.26 607.24"/><polyline class="cls-1" points="280.93 671.84 280.93 592.22 32.09 592.22"/><line class="cls-1" x1="131.92" y1="613.79" x2="28.55" y2="613.79"/><line class="cls-1" x1="122.25" y1="622.31" x2="25.61" y2="622.31"/><path class="cls-1" d="M28.36,718H212s17.7.47,17.36,0V665.48"/><polyline class="cls-1" points="318.22 711.28 318.22 593.16 335 593.16 425.63 483.89"/><polyline class="cls-1" points="375.21 692.97 495.67 692.97 621.23 854.27 806.43 854.27 820.26 837.59"/><polyline class="cls-1" points="163.43 592.97 163.43 705.27 32.19 705.27"/><polyline class="cls-1" points="156.08 680.08 156.08 691.96 98.1 691.96 60.07 646.11 23.36 646.11"/><polyline class="cls-1" points="33.07 667.66 50.43 667.66 69.26 690.37"/><polyline class="cls-1" points="29.16 633.84 133.72 633.84 133.72 659.74"/><path class="cls-1" d="M684.4,670.3v13.44H821.53"/><line class="cls-1" x1="714.81" y1="672.15" x2="820.16" y2="672.15"/><path class="cls-1" d="M556.29,665v30.38s27.81-.23,27.64,0H820.55"/><polyline class="cls-1" points="523.73 663.57 523.73 703.14 631.04 832.51 788.38 832.51"/><line class="cls-1" x1="95.06" y1="653.71" x2="112.33" y2="674.52"/><line class="cls-1" x1="677.09" y1="596.71" x2="677.09" y2="616.64"/><line class="cls-1" x1="626.72" y1="597.18" x2="626.72" y2="617.1"/><line class="cls-1" x1="640.46" y1="671.33" x2="640.46" y2="694.98"/><line class="cls-1" x1="400.11" y1="692.45" x2="400.11" y2="595.11"/><line class="cls-1" x1="342.65" y1="612.69" x2="342.65" y2="727.08"/><line class="cls-1" x1="368.54" y1="671.67" x2="368.54" y2="710.59"/><line class="cls-1" x1="230.73" y1="665.57" x2="230.73" y2="592.21"/><polyline class="cls-1" points="166.9 861.13 166.9 825.82 196.94 825.82"/><line class="cls-1" x1="678.69" y1="339.47" x2="762.62" y2="339.47"/><path class="cls-1" d="M280.47,670.3v19H248.83V740s-3.86,0-3.83,0H111.35L23.65,845.75"/><path class="cls-1" d="M24.24,889.74l86.52-104.3c0-.73,97.1-1.26,97.1-1.26h37.3v-21.7l41-41"/><polyline class="cls-1" points="287.5 668.77 287.5 720.07 286.11 721.47"/><line class="cls-1" x1="267.32" y1="663.57" x2="267.32" y2="688.95"/></g></g></svg>